<?xml version="1.0" encoding="utf-8"?>
<!-- Generator: Adobe Illustrator 21.1.0, SVG Export Plug-In . SVG Version: 6.00 Build 0)  -->
<svg version="1.1" id="Capa_1" xmlns="http://www.w3.org/2000/svg" xmlns:xlink="http://www.w3.org/1999/xlink" x="0px" y="0px"
	 viewBox="0 0 90 1116" style="enable-background:new 0 0 90 1116;" xml:space="preserve">
<style type="text/css">
	.st0{display:none;fill:#F20808;stroke:#000000;stroke-miterlimit:10;}
	.st1{fill:#FFFFFF;}
	.st2{fill:#B81F23;}
	.st3{fill-rule:evenodd;clip-rule:evenodd;fill:#FFFFFF;}
	.st4{fill-rule:evenodd;clip-rule:evenodd;fill:none;stroke:#DA1E23;stroke-width:9.1667;stroke-miterlimit:10;}
	.st5{fill:#C22821;}
	.st6{fill:#3E3E3D;}
	.st7{fill:#3D3D3C;}
	.st8{fill:#C3360E;}
</style>
<rect y="84.5" class="st0" width="90" height="95.5"/>
<g>
	<path class="st1" d="M45,2.8C22.5,2.8,4.2,21.1,4.2,43.7c0,22.5,18.3,40.9,40.9,40.9c22.5,0,40.9-18.3,40.9-40.9
		C85.9,21.1,67.6,2.8,45,2.8"/>
	<path class="st2" d="M57.2,60.6c1.9,0.9,2.9,2.7,2.5,4.6c-0.4,2-2.2,3.5-4.2,3.5c-0.7,0-1.3-0.1-2-0.4C53.2,68.1,25.7,55.2,26,43.7
		c-0.2-11.5,27.2-24.4,27.5-24.5c0.6-0.3,1.3-0.4,2-0.4c2,0,3.8,1.5,4.2,3.5c0.4,1.9-0.5,3.8-2.5,4.6C49,30.5,34.3,39.3,34.3,43.6
		C34.3,48,49.2,57,57.2,60.6"/>
</g>
<g>
	<circle class="st3" cx="45.5" cy="220.8" r="40.9"/>
	<g>
		<line class="st4" x1="28.8" y1="204.2" x2="62.2" y2="237.4"/>
		<line class="st4" x1="28.8" y1="237.4" x2="62.2" y2="204.2"/>
	</g>
</g>
<g>
	<path class="st5" d="M11.2,367.2h65.6c2.4,0,4.3-1.9,4.3-4.3c0-2.4-1.9-4.3-4.3-4.3H11.2c-2.4,0-4.3,1.9-4.3,4.3
		C7,365.3,8.9,367.2,11.2,367.2"/>
	<path class="st5" d="M11.2,390h44.2c-2.5-3.5-4.2-7.2-4.9-8.5H11.2c-2.4,0-4.3,1.9-4.3,4.3C7,388,8.9,390,11.2,390"/>
	<path class="st5" d="M76.8,404.2H11.2c-2.4,0-4.3,1.9-4.3,4.3c0,2.4,1.9,4.3,4.3,4.3h65.6c2.4,0,4.3-1.9,4.3-4.3
		C81.1,406.1,79.2,404.2,76.8,404.2"/>
	<path class="st5" d="M79.1,377.7c2.1,0.5,2.2,2.3,1.7,3.4c-1.7,3.6-7.9,14.2-12.7,14c-4.8,0-10.9-11-12.4-14.7
		c-0.9-2.1,0.9-2.8,2.5-3.1C63.8,376.1,71.2,375.8,79.1,377.7"/>
</g>
<rect x="0" y="261.6" class="st0" width="90" height="95.5"/>
<rect x="-0.1" y="415" class="st0" width="90" height="95.5"/>
<g>
	<g>
		<path class="st6" d="M79,515.7c0-1.4-1.2-2.6-2.6-2.6H14.7c-1.4,0-2.6,1.2-2.6,2.6v38.6H79V515.7z M76.4,551.7H14.7v-36h61.7
			V551.7z"/>
		<path class="st6" d="M79,555.5H12.2l-7.7,15.4v0.6c0,1.4,0.5,1.9,1.9,1.9h78.4c1.4,0,1.9-0.5,1.9-1.9v-0.6L79,555.5z M55.2,570.3
			H35.9c-0.4,0-0.6-0.3-0.5-0.6l0.4-2.6c0.1-0.3,0.4-0.6,0.7-0.6h18c0.4,0,0.7,0.3,0.7,0.6l0.4,2.6C55.8,570,55.6,570.3,55.2,570.3z
			 M81,565.5C80.9,565.5,80.9,565.5,81,565.5H10.2c-0.1,0-0.2-0.1-0.3-0.2c-0.1-0.1-0.1-0.2,0-0.3l3.9-7.7c0.1-0.1,0.2-0.2,0.3-0.2
			h26.5h5h5h26.5c0.1,0,0.2,0.1,0.3,0.2l3.8,7.6c0.1,0.1,0.1,0.1,0.1,0.2C81.3,565.3,81.1,565.5,81,565.5z"/>
		<polygon class="st6" points="59.5,559.7 59.1,557.8 55.4,557.8 55.5,559.7 		"/>
		<polygon class="st6" points="54.9,559.7 54.7,557.8 50.9,557.8 50.9,559.7 		"/>
		<rect x="40.9" y="560.3" class="st6" width="4.4" height="1.9"/>
		<rect x="40.9" y="557.8" class="st6" width="4.4" height="1.9"/>
		<polygon class="st6" points="40.2,559.7 40.2,557.8 36.5,557.8 36.3,559.7 		"/>
		<polygon class="st6" points="64,559.7 63.5,557.8 59.8,557.8 60.1,559.7 		"/>
		<polygon class="st6" points="73.2,559.7 72.4,557.8 68.6,557.8 69.3,559.7 		"/>
		<polygon class="st6" points="77.8,559.7 76.9,557.8 73.1,557.8 73.9,559.7 		"/>
		<polygon class="st6" points="68.6,559.7 68,557.8 64.2,557.8 64.7,559.7 		"/>
		<polygon class="st6" points="22.4,560.3 21.7,562.3 25.8,562.3 26.3,560.3 		"/>
		<polygon class="st6" points="17.7,560.3 16.9,562.3 21,562.3 21.7,560.3 		"/>
		<rect x="45.9" y="560.3" class="st6" width="4.4" height="1.9"/>
		<polygon class="st6" points="36.2,560.3 36.1,562.3 40.2,562.3 40.2,560.3 		"/>
		<rect x="45.9" y="557.8" class="st6" width="4.4" height="1.9"/>
		<polygon class="st6" points="31.6,560.3 31.3,562.3 35.4,562.3 35.6,560.3 		"/>
		<polygon class="st6" points="27,560.3 26.5,562.3 30.6,562.3 31,560.3 		"/>
		<polygon class="st6" points="26.5,559.7 27,557.8 23.2,557.8 22.6,559.7 		"/>
		<polygon class="st6" points="18.1,557.8 14.3,557.8 13.3,559.7 17.3,559.7 		"/>
		<polygon class="st6" points="31.2,562.9 30.9,564.8 35.2,564.8 35.4,562.9 		"/>
		<polygon class="st6" points="21.5,562.9 20.9,564.8 25.2,564.8 25.7,562.9 		"/>
		<polygon class="st6" points="50.6,562.9 45.6,562.9 40.6,562.9 36,562.9 35.9,564.8 55.3,564.8 55.1,562.9 		"/>
		<polygon class="st6" points="26.3,562.9 25.9,564.8 30.2,564.8 30.5,562.9 		"/>
		<polygon class="st6" points="16.7,562.9 15.9,564.8 20.2,564.8 20.8,562.9 		"/>
		<polygon class="st6" points="17,560.3 13,560.3 12,562.3 16.2,562.3 		"/>
		<polygon class="st6" points="11.7,562.9 10.8,564.8 15.2,564.8 16,562.9 		"/>
		<polygon class="st6" points="70.4,562.9 71,564.8 75.3,564.8 74.5,562.9 		"/>
		<polygon class="st6" points="35.7,559.7 35.8,557.8 32,557.8 31.7,559.7 		"/>
		<polygon class="st6" points="55.8,562.9 56,564.8 60.3,564.8 60,562.9 		"/>
		<polygon class="st6" points="76,564.8 80.4,564.8 79.5,562.9 75.2,562.9 		"/>
		<polygon class="st6" points="74.9,562.3 79.1,562.3 78.2,560.3 74.1,560.3 		"/>
		<polygon class="st6" points="31.1,559.7 31.4,557.8 27.6,557.8 27.1,559.7 		"/>
		<polygon class="st6" points="60.6,562.9 61,564.8 65.3,564.8 64.8,562.9 		"/>
		<polygon class="st6" points="55.1,562.3 54.9,560.3 50.9,560.3 50.9,562.3 		"/>
		<polygon class="st6" points="65.5,562.9 66,564.8 70.3,564.8 69.7,562.9 		"/>
		<polygon class="st6" points="21.9,559.7 22.5,557.8 18.8,557.8 18,559.7 		"/>
		<polygon class="st6" points="59.9,562.3 59.6,560.3 55.6,560.3 55.7,562.3 		"/>
		<polygon class="st6" points="64.7,562.3 64.2,560.3 60.2,560.3 60.5,562.3 		"/>
		<polygon class="st6" points="69.5,562.3 68.8,560.3 64.9,560.3 65.3,562.3 		"/>
		<polygon class="st6" points="74.2,562.3 73.4,560.3 69.5,560.3 70.1,562.3 		"/>
	</g>
</g>
<rect x="0.9" y="577.2" class="st0" width="90" height="95.5"/>
<g>
	<g>
		<polygon class="st7" points="45,695.9 43.3,691.6 44.6,690.2 45.3,690.2 46.7,691.6 		"/>
		<path class="st7" d="M48.1,689.9l-3,9.6l-3.3-9.6c-8.9,1.6-8.7,11.2-8.6,11.6h23.2C56.6,701.1,57.3,691.4,48.1,689.9z"/>
		<ellipse class="st7" cx="45" cy="682.8" rx="6" ry="6.5"/>
	</g>
	<ellipse class="st7" cx="69.8" cy="705.6" rx="4" ry="4"/>
	<ellipse class="st7" cx="44.3" cy="749" rx="4.3" ry="4.4"/>
	<ellipse class="st7" cx="56.6" cy="747.8" rx="1.7" ry="1.7"/>
	<ellipse class="st7" cx="73" cy="717.7" rx="1.7" ry="1.7"/>
	<ellipse class="st7" cx="16.2" cy="717.7" rx="1.7" ry="1.7"/>
	<ellipse class="st7" cx="60.7" cy="697.5" rx="1.7" ry="1.7"/>
	<ellipse class="st7" cx="28.2" cy="697.5" rx="1.7" ry="1.7"/>
	<ellipse class="st7" cx="32.6" cy="747.8" rx="1.7" ry="1.7"/>
	<ellipse class="st7" cx="19.8" cy="705.6" rx="4" ry="4"/>
	<g>
		<g>
			<path class="st5" d="M73.1,748.6c-7.6,0-13.7-6.2-13.7-13.7c0-7.6,6.2-13.7,13.7-13.7c7.6,0,13.7,6.2,13.7,13.7
				C86.9,742.4,80.7,748.6,73.1,748.6z M73.1,725c-5.4,0-9.9,4.4-9.9,9.9c0,5.4,4.4,9.9,9.9,9.9c5.4,0,9.9-4.4,9.9-9.9
				C83,729.4,78.6,725,73.1,725z"/>
		</g>
		<g>
			<path class="st5" d="M75.2,732.3c0,3.7-0.5,5.4-1.3,5.4c-0.7,0-1.3-1.7-1.3-5.4c0-3.7,0.6-6.7,1.3-6.7
				C74.6,725.6,75.2,728.6,75.2,732.3z"/>
			
				<ellipse transform="matrix(0.7403 -0.6722 0.6722 0.7403 -477.7396 239.9174)" class="st5" cx="71.7" cy="738.4" rx="4" ry="1.3"/>
		</g>
	</g>
	<g>
		<g>
			<path class="st5" d="M17.8,748.6c-7.6,0-13.7-6.2-13.7-13.7c0-7.6,6.2-13.7,13.7-13.7c7.6,0,13.7,6.2,13.7,13.7
				C31.6,742.4,25.4,748.6,17.8,748.6z M17.8,725c-5.4,0-9.9,4.4-9.9,9.9c0,5.4,4.4,9.9,9.9,9.9s9.9-4.4,9.9-9.9
				C27.7,729.4,23.3,725,17.8,725z"/>
		</g>
		<g>
			<path class="st5" d="M16.6,742.3v-1.8c-1.3-0.1-2.5-0.4-3.2-0.8l0.6-2.2c0.8,0.4,1.9,0.8,3.1,0.8c1.1,0,1.8-0.4,1.8-1.2
				c0-0.7-0.6-1.2-2-1.6c-2-0.7-3.4-1.6-3.4-3.4c0-1.7,1.2-3,3.2-3.3V727h1.8v1.6c1.2,0,2.1,0.3,2.7,0.6l-0.6,2.1
				c-0.5-0.2-1.3-0.7-2.7-0.7c-1.2,0-1.6,0.5-1.6,1.1c0,0.6,0.7,1,2.3,1.6c2.2,0.8,3.1,1.8,3.1,3.5c0,1.7-1.2,3.1-3.3,3.4v1.9H16.6z
				"/>
		</g>
	</g>
</g>
<rect x="-0.1" y="756.3" class="st0" width="90" height="95.5"/>
<g>
	<path class="st8" d="M43.8,860.8v21.5c0,2.5,2.6,4.6,5.9,4.6l-4.5,7.2l15.1-7.2h8.9h9.9c3.3,0,5.9-2.1,5.9-4.6v-19.9v-1.6
		c0-2.5-2.6-4.6-5.9-4.6H49.7C46.4,856.2,43.8,858.3,43.8,860.8z"/>
	<g>
		<path class="st1" d="M62.8,882.2v-2.5c-2-0.1-4-0.6-5.1-1.1l0.9-3.1c1.3,0.6,3,1.2,5,1.2c1.7,0,2.9-0.6,2.9-1.6c0-1-1-1.6-3.2-2.3
			c-3.2-0.9-5.4-2.3-5.4-4.8c0-2.3,1.9-4.2,5.1-4.7v-2.5h2.9v2.3c2,0.1,3.3,0.4,4.4,0.9l-0.9,3c-0.7-0.3-2.2-0.9-4.3-0.9
			c-1.9,0-2.6,0.8-2.6,1.5c0,0.8,1.1,1.4,3.6,2.2c3.6,1.1,5,2.6,5,5c0,2.3-1.9,4.3-5.3,4.8v2.7H62.8z"/>
	</g>
	<g>
		<g>
			<g>
				<polygon class="st7" points="28.3,907.2 26.8,907.2 24.8,909.4 27.7,919.6 30.3,909.4 				"/>
				<g>
					<path class="st7" d="M49.4,932.7c-0.5-7.7-2.1-15-3.5-17.1c-2.6-3.6-6.6-6-11.9-7l-6.3,20.2l-6.9-20.1
						c-3.6,0.7-6.6,2.1-8.9,4.1c-0.8,0.6-1.4,1.3-2.1,2c-1.7,2.1-3.6,9.4-4.4,17.5c-0.4,3.7,0,8.8,0.5,12.4c0.8,5.5,42.2,5.1,42.9,0
						C49.3,941,49.7,936.6,49.4,932.7z"/>
				</g>
			</g>
		</g>
	</g>
	<circle class="st7" cx="27.4" cy="893.1" r="11.8"/>
</g>
<rect x="0.5" y="954.5" class="st0" width="90" height="95.5"/>
<g>
	<path class="st8" d="M79,1066.2c0,0-4.9,4.6-15.3,5.3c-8.9,0.6-26.6-3.7-34-4.7c-7.3-1-15.6,1-15.6,1v3.8c2.7-0.3,6.2-0.4,10-0.1
		c12.3,1.1,26.7,5.6,33.7,5.4c10.4-0.3,17.2-4.6,17.2-4.6v22.2c3.5-1.1,4-2.3,4-2.3V1066.2z"/>
	<path class="st8" d="M84.8,1057c0,0-7.1,6.8-16.5,6.9c-10.5,0.1-26-3.3-33.4-4.4c-7.3-1-15.6,0.3-15.6,0.3l0.2,4
		c2.7-0.3,6-0.6,9.8-0.3c12.3,1.1,25.7,5.2,33.9,5c12.4-0.2,17.5-5.7,17.5-5.7l0,22.6c3.5-1.1,4-2.3,4-2.3V1057z"/>
	<g>
		<path class="st7" d="M56,1079.8c-5.7,0.2-21.8-4.1-34.2-5.4c-3.8-0.4-7.4-0.2-10.1,0.1c-3.4,0.4-5.6,1-5.6,1v31.4
			c0,0,7.8-2.1,17.2-1.2c12.9,1.2,29,5.5,34.4,5.5c9.4,0,15.3-4.3,15.3-4.3v-5.8v-25.6C73,1075.5,66.5,1079.4,56,1079.8z
			 M39.6,1104.5c-6.1,0-11-5-11-11.3c0-6.2,4.9-11.3,11-11.3s11,5,11,11.3C50.6,1099.5,45.6,1104.5,39.6,1104.5z"/>
		<g>
			<path class="st7" d="M47.1,1088.6c0,0.9-0.5,1.6-1.4,1.6c-1.4,0-2.4-2.7-4.8-2.7c-0.7,0-1.4,0.4-1.4,1.2c0,2.5,7.9,1,7.9,7.1
				c0,3.5-3.7,5.3-5.5,5.5c-0.6,0.1-0.5,0.3-0.5,0.9c0,1.3-0.1,1.3-1.3,1.3c-1.2,0-1.5,0.2-1.5-1.2c0-0.4,0.1-0.9-0.4-1
				c-1-0.1-3-0.6-3.7-1.1c-0.9-0.7-1.4-3-1.4-4.1c0-0.6,0.3-1.2,0.9-1.2c1.8,0,1.4,3.7,5.4,3.7c0.6,0,1.9-0.3,1.9-1.1
				c0-0.8-0.2-1-3-2c-2.3-0.8-4.8-2.5-4.8-5.4c0-2.6,2.1-4.8,4.5-5.3c0.7-0.1,0.6-0.2,0.6-0.9c0-1.3,0.1-1.3,1.3-1.3
				c1.2,0,1.5-0.2,1.5,1.2c0,0.4-0.1,0.9,0.3,1c0.3,0.1,1.6,0.4,1.8,0.4c0.3,0,0.7-0.3,1.2-0.3C45.5,1084.9,47.1,1087,47.1,1088.6z"
				/>
		</g>
	</g>
</g>
</svg>
