<svg xmlns="http://www.w3.org/2000/svg" viewBox="0 0 82.2 60.3"><defs><style>.cls-1{fill:#3e3e3d;}</style></defs><title>Recurso 4</title><g id="Capa_2" data-name="Capa 2"><g id="Capa_1-2" data-name="Capa 1"><path class="cls-1" d="M74.5,2.6A2.65,2.65,0,0,0,71.9,0H10.2A2.65,2.65,0,0,0,7.6,2.6V41.2H74.5Zm-2.6,36H10.2V2.6H71.9Z"/><path class="cls-1" d="M74.5,42.4H7.7L0,57.8v.6c0,1.4.5,1.9,1.9,1.9H80.3c1.4,0,1.9-.5,1.9-1.9v-.6ZM50.7,57.2H31.4a.46.46,0,0,1-.5-.6l.4-2.6a.86.86,0,0,1,.7-.6H50a.67.67,0,0,1,.7.6l.4,2.6C51.3,56.9,51.1,57.2,50.7,57.2Zm25.8-4.8H5.7c-.1,0-.2-.1-.3-.2a.19.19,0,0,1,0-.3l3.9-7.7c.1-.1.2-.2.3-.2h63c.1,0,.2.1.3.2l3.8,7.6c.1.1.1.1.1.2A.45.45,0,0,1,76.5,52.4Z"/><polygon class="cls-1" points="55 46.6 54.6 44.7 50.9 44.7 51 46.6 55 46.6"/><polygon class="cls-1" points="50.4 46.6 50.2 44.7 46.4 44.7 46.4 46.6 50.4 46.6"/><rect class="cls-1" x="36.4" y="47.2" width="4.4" height="1.9"/><rect class="cls-1" x="36.4" y="44.7" width="4.4" height="1.9"/><polygon class="cls-1" points="35.7 46.6 35.7 44.7 32 44.7 31.8 46.6 35.7 46.6"/><polygon class="cls-1" points="59.5 46.6 59 44.7 55.3 44.7 55.6 46.6 59.5 46.6"/><polygon class="cls-1" points="68.7 46.6 67.9 44.7 64.1 44.7 64.8 46.6 68.7 46.6"/><polygon class="cls-1" points="73.3 46.6 72.4 44.7 68.6 44.7 69.4 46.6 73.3 46.6"/><polygon class="cls-1" points="64.1 46.6 63.5 44.7 59.7 44.7 60.2 46.6 64.1 46.6"/><polygon class="cls-1" points="17.9 47.2 17.2 49.2 21.3 49.2 21.8 47.2 17.9 47.2"/><polygon class="cls-1" points="13.2 47.2 12.4 49.2 16.5 49.2 17.2 47.2 13.2 47.2"/><rect class="cls-1" x="41.4" y="47.2" width="4.4" height="1.9"/><polygon class="cls-1" points="31.7 47.2 31.6 49.2 35.7 49.2 35.7 47.2 31.7 47.2"/><rect class="cls-1" x="41.4" y="44.7" width="4.4" height="1.9"/><polygon class="cls-1" points="27.1 47.2 26.8 49.2 30.9 49.2 31.1 47.2 27.1 47.2"/><polygon class="cls-1" points="22.5 47.2 22 49.2 26.1 49.2 26.5 47.2 22.5 47.2"/><polygon class="cls-1" points="22 46.6 22.5 44.7 18.7 44.7 18.1 46.6 22 46.6"/><polygon class="cls-1" points="13.6 44.7 9.8 44.7 8.8 46.6 12.8 46.6 13.6 44.7"/><polygon class="cls-1" points="26.7 49.8 26.4 51.7 30.7 51.7 30.9 49.8 26.7 49.8"/><polygon class="cls-1" points="17 49.8 16.4 51.7 20.7 51.7 21.2 49.8 17 49.8"/><polygon class="cls-1" points="46.1 49.8 41.1 49.8 36.1 49.8 31.5 49.8 31.4 51.7 50.8 51.7 50.6 49.8 46.1 49.8"/><polygon class="cls-1" points="21.8 49.8 21.4 51.7 25.7 51.7 26 49.8 21.8 49.8"/><polygon class="cls-1" points="12.2 49.8 11.4 51.7 15.7 51.7 16.3 49.8 12.2 49.8"/><polygon class="cls-1" points="12.5 47.2 8.5 47.2 7.5 49.2 11.7 49.2 12.5 47.2"/><polygon class="cls-1" points="7.2 49.8 6.3 51.7 10.7 51.7 11.5 49.8 7.2 49.8"/><polygon class="cls-1" points="65.9 49.8 66.5 51.7 70.8 51.7 70 49.8 65.9 49.8"/><polygon class="cls-1" points="31.2 46.6 31.3 44.7 27.5 44.7 27.2 46.6 31.2 46.6"/><polygon class="cls-1" points="51.3 49.8 51.5 51.7 55.8 51.7 55.5 49.8 51.3 49.8"/><polygon class="cls-1" points="71.5 51.7 75.9 51.7 75 49.8 70.7 49.8 71.5 51.7"/><polygon class="cls-1" points="70.4 49.2 74.6 49.2 73.7 47.2 69.6 47.2 70.4 49.2"/><polygon class="cls-1" points="26.6 46.6 26.9 44.7 23.1 44.7 22.6 46.6 26.6 46.6"/><polygon class="cls-1" points="56.1 49.8 56.5 51.7 60.8 51.7 60.3 49.8 56.1 49.8"/><polygon class="cls-1" points="50.6 49.2 50.4 47.2 46.4 47.2 46.4 49.2 50.6 49.2"/><polygon class="cls-1" points="61 49.8 61.5 51.7 65.8 51.7 65.2 49.8 61 49.8"/><polygon class="cls-1" points="17.4 46.6 18 44.7 14.3 44.7 13.5 46.6 17.4 46.6"/><polygon class="cls-1" points="55.4 49.2 55.1 47.2 51.1 47.2 51.2 49.2 55.4 49.2"/><polygon class="cls-1" points="60.2 49.2 59.7 47.2 55.7 47.2 56 49.2 60.2 49.2"/><polygon class="cls-1" points="65 49.2 64.3 47.2 60.4 47.2 60.8 49.2 65 49.2"/><polygon class="cls-1" points="69.7 49.2 68.9 47.2 65 47.2 65.6 49.2 69.7 49.2"/></g></g></svg>