<svg xmlns="http://www.w3.org/2000/svg" viewBox="0 0 82.7 77.1"><defs><style>.cls-1{fill:#3d3d3c;}.cls-2{fill:#da1e23;}</style></defs><title>Recurso 5</title><g id="Capa_2" data-name="Capa 2"><g id="Capa_1-2" data-name="Capa 1"><polygon class="cls-1" points="40.9 19.6 39.2 15.3 40.5 13.9 41.2 13.9 42.6 15.3 40.9 19.6"/><path class="cls-1" d="M44,13.6l-3,9.6-3.3-9.6c-8.9,1.6-8.7,11.2-8.6,11.6H52.3C52.5,24.8,53.2,15.1,44,13.6Z"/><ellipse class="cls-1" cx="40.9" cy="6.5" rx="6" ry="6.5"/><circle class="cls-1" cx="65.7" cy="29.3" r="4"/><ellipse class="cls-1" cx="40.2" cy="72.7" rx="4.3" ry="4.4"/><circle class="cls-1" cx="52.5" cy="71.5" r="1.7"/><circle class="cls-1" cx="68.9" cy="41.4" r="1.7"/><circle class="cls-1" cx="12.1" cy="41.4" r="1.7" transform="translate(-0.42 0.13) rotate(-0.58)"/><circle class="cls-1" cx="56.6" cy="21.2" r="1.7"/><circle class="cls-1" cx="24.1" cy="21.2" r="1.7"/><circle class="cls-1" cx="28.5" cy="71.5" r="1.7"/><circle class="cls-1" cx="15.7" cy="29.3" r="4"/><path class="cls-2" d="M69,72.3A13.7,13.7,0,1,1,82.7,58.6,13.72,13.72,0,0,1,69,72.3Zm0-23.6a9.9,9.9,0,1,0,9.9,9.9A9.92,9.92,0,0,0,69,48.7Z"/><path class="cls-2" d="M71.1,56c0,3.7-.5,5.4-1.3,5.4s-1.3-1.7-1.3-5.4.6-6.7,1.3-6.7S71.1,52.3,71.1,56Z"/><ellipse class="cls-2" cx="67.59" cy="62.06" rx="4" ry="1.3" transform="translate(-24.17 61.55) rotate(-42.24)"/><path class="cls-2" d="M13.7,72.3A13.7,13.7,0,1,1,27.4,58.6,13.72,13.72,0,0,1,13.7,72.3Zm0-23.6a9.9,9.9,0,1,0,9.9,9.9A9.92,9.92,0,0,0,13.7,48.7Z"/><path class="cls-2" d="M12.5,66V64.2a8.28,8.28,0,0,1-3.2-.8l.6-2.2A7.07,7.07,0,0,0,13,62c1.1,0,1.8-.4,1.8-1.2s-.6-1.2-2-1.6c-2-.7-3.4-1.6-3.4-3.4a3.37,3.37,0,0,1,3.2-3.3V50.7h1.8v1.6a6,6,0,0,1,2.7.6L16.5,55a6,6,0,0,0-2.7-.7c-1.2,0-1.6.5-1.6,1.1s.7,1,2.3,1.6c2.2.8,3.1,1.8,3.1,3.5a3.47,3.47,0,0,1-3.3,3.4v1.9H12.5Z"/></g></g></svg>